<svg width="1817" height="690" viewBox="0 0 1817 690" fill="none" xmlns="http://www.w3.org/2000/svg">
<path d="M1619.58 650.298C1612.2 649.253 1606.65 645.047 1602.9 637.679C1599.16 630.311 1597.93 622.103 1599.21 613.053C1599.93 608.026 1601.4 603.62 1603.65 599.836C1607.14 594.518 1609.72 591.978 1611.4 592.215C1612.74 592.405 1613.26 593.506 1612.98 595.517C1612.74 597.192 1611.93 599.3 1610.55 601.838C1610.07 602.796 1609.78 603.611 1609.69 604.281C1609.21 605.239 1608.92 606.053 1608.83 606.723C1607.97 612.756 1608.77 619.194 1611.22 626.037C1614 632.927 1618.08 636.752 1623.44 637.512L1627.6 637.076C1635.93 636.205 1644.12 632.749 1652.15 626.708C1660.47 621.05 1668.87 613.692 1677.33 604.634C1688.66 592.223 1699.15 578.495 1708.81 563.453C1718.41 548.745 1727.01 533.895 1734.61 518.903C1742.2 503.91 1748.24 490.236 1752.73 477.88C1752.96 476.204 1752.41 475.271 1751.07 475.081C1748.73 474.749 1744.66 476.908 1738.87 481.558C1734.23 485.345 1728.18 490.642 1720.72 497.448C1713.26 504.254 1704.08 512.355 1693.18 521.751L1683.78 530.163C1677.51 535.771 1671.32 539.679 1665.19 541.889C1659.45 543.81 1654.23 544.438 1649.54 543.774C1645.52 543.204 1642.29 541.891 1639.84 539.835C1636.82 537.014 1635.74 532.587 1636.6 526.555C1637.97 516.835 1644.78 501.389 1657.01 480.215L1665.82 465.054C1670.27 457.82 1674.11 451.186 1677.36 445.15C1680.95 439.162 1684.29 433.653 1687.4 428.623C1690.36 424.598 1693.35 422.8 1696.37 423.227C1700.05 423.75 1700.41 426.023 1697.45 430.048C1681.49 455.821 1671.39 476.441 1667.15 491.908C1666.72 492.531 1666.41 493.513 1666.22 494.854C1666.08 495.859 1665.91 497.032 1665.72 498.373C1664.67 505.746 1667.17 509.86 1673.2 510.715C1677.22 511.285 1683.25 509.746 1691.29 506.099C1699.42 501.781 1709.83 494.708 1722.5 484.88C1735.23 474.717 1750.55 461.845 1768.49 446.267C1771.55 443.965 1774.44 441.64 1777.17 439.291C1779.89 436.943 1782.43 434.738 1784.77 432.676C1786.3 431.526 1787.57 431.022 1788.58 431.164C1789.58 431.307 1789.87 432.886 1789.44 435.902C1789.02 438.919 1787.97 442.702 1786.3 447.252C1784.67 451.466 1783.79 454.076 1783.65 455.082C1776.16 478.978 1765.06 504.243 1750.35 530.876C1735.34 557.127 1717.61 580.94 1697.15 602.314C1677.02 623.735 1655.71 639.007 1633.22 648.128C1628.48 650.192 1623.93 650.915 1619.58 650.298Z" fill="black" fill-opacity="0.05"/>
<path d="M1559.37 542.279C1552.33 541.282 1546.4 538.56 1541.56 534.114C1533.79 526.176 1530.86 515.504 1532.76 502.098C1534.66 488.692 1541.37 475.112 1552.89 461.36C1564.41 447.608 1580.63 435.717 1601.53 425.688C1605.22 423.817 1609.91 423.285 1615.61 424.092C1622.98 425.137 1629.23 428.074 1634.36 432.903C1639.82 437.78 1641.43 443.307 1639.19 449.485C1635.37 459.542 1628.87 468.023 1619.69 474.927C1610.84 481.878 1600.6 487.778 1588.97 492.627C1577.73 497.187 1566.17 501.533 1554.3 505.664C1553.83 506.622 1553.35 507.58 1552.87 508.537C1552.73 509.543 1552.59 510.548 1552.44 511.554C1551.78 516.246 1552.69 520.649 1555.19 524.763C1558.06 528.59 1562.35 530.907 1568.05 531.714C1572.41 532.331 1576.19 532.183 1579.39 531.27C1585.04 530.019 1589.66 528.793 1593.25 527.592C1597.17 526.439 1601.72 524.519 1606.89 521.832C1612.05 519.145 1619.13 515.02 1628.13 509.457C1632.19 507.298 1634.56 506.266 1635.23 506.361C1637.24 506.646 1637.7 508.249 1636.6 511.17C1632.49 516.058 1625.79 521.092 1616.51 526.273C1607.57 531.501 1597.73 535.749 1587.02 539.017C1576.63 542.332 1567.42 543.419 1559.37 542.279ZM1559.24 492.517C1561.93 492.897 1567.84 490.999 1576.97 486.824C1586.11 482.649 1594.82 477.9 1603.1 472.576C1617.49 462.65 1625.14 454.504 1626.05 448.136C1626.28 446.46 1625.99 444.88 1625.18 443.397C1624.41 441.579 1623.02 440.527 1621.01 440.243C1614.64 439.34 1602.85 445.362 1585.63 458.307C1573.82 466.889 1565.02 478.293 1559.24 492.517Z" fill="black" fill-opacity="0.05"/>
<path d="M1450.74 555.092C1447.05 554.57 1444.03 552.946 1441.68 550.22C1439.67 547.541 1439.07 544.55 1439.88 541.246C1442.5 527.6 1446.89 514.717 1453.05 502.599C1459.54 490.527 1468.41 476.228 1479.64 459.699C1480.98 457.496 1482.1 455.603 1483.01 454.023C1484.3 452.154 1485.37 450.597 1486.23 449.351C1495.84 434.644 1505.52 420.63 1515.27 407.311C1525.02 393.991 1534.72 381.007 1544.38 368.358L1553.19 356.787C1563.28 343.515 1571.96 332.949 1579.22 325.09C1586.54 316.896 1593.5 311.215 1600.1 308.048C1608.47 304.448 1613.5 302.767 1615.17 303.004C1617.86 303.384 1620.21 306.11 1622.22 311.182C1623.42 314.771 1618.91 322.507 1608.68 334.391C1603.37 340.477 1596.65 348.072 1588.52 357.177C1580.73 366.33 1571.41 376.633 1560.56 388.086C1558.55 390.195 1555.1 393.981 1550.23 399.444C1545.73 404.619 1539.64 411.448 1531.94 419.93C1524.24 428.412 1517.5 436.175 1511.72 443.219C1505.98 449.927 1501.2 455.917 1497.38 461.187C1489.78 471.392 1482.39 482.483 1475.23 494.459C1468.11 506.1 1464.05 515.439 1463.05 522.478C1462.15 528.846 1464.21 532.386 1469.24 533.098C1477.28 534.238 1491.16 529.195 1510.87 517.971C1512.83 518.591 1513.7 519.739 1513.46 521.415C1513.27 522.755 1511.26 524.864 1507.43 527.741C1503.99 530.33 1499.68 532.968 1494.52 535.654C1489.64 538.724 1483.85 542.177 1477.15 546.014L1468.25 550.907C1462.27 554.505 1456.44 555.9 1450.74 555.092Z" fill="black" fill-opacity="0.05"/>
<path d="M1307.17 537.315C1306.84 537.268 1306.5 537.22 1306.17 537.173C1305.45 537.413 1304.76 537.485 1304.09 537.39C1300.4 536.868 1298.82 534.763 1299.34 531.077C1299.67 528.731 1301.15 525.522 1303.78 521.449C1306.03 517.665 1308.63 513.761 1311.59 509.736C1314.51 506.047 1316.4 503.579 1317.26 502.333C1321.85 496.488 1325.43 491.697 1328.01 487.96C1330.93 484.27 1332.86 481.467 1333.82 479.551L1349.95 452.605L1344.91 448.303C1343.38 447.06 1342.18 445.864 1341.32 444.716C1340.79 443.616 1340.38 442.874 1340.1 442.492L1339.38 440.338C1339.66 438.327 1342.41 437.008 1347.63 436.379C1349.83 435.324 1355.09 434.36 1363.42 433.489L1386.22 399.283L1398.47 377.942C1416.63 346.326 1433.26 320.648 1448.36 300.907C1463.85 280.879 1480.35 268.175 1497.87 262.793L1498.37 262.864C1499.71 263.054 1501.46 263.986 1503.61 265.659C1505.77 267.332 1507.04 269.221 1507.43 271.327C1507.57 272.715 1507.53 274.247 1507.29 275.923C1507.43 277.311 1507.39 278.843 1507.15 280.519C1506.15 287.557 1503.24 296.034 1498.42 305.948C1493.98 315.576 1487.26 325.565 1478.27 335.915C1470.15 345.02 1460.03 354.869 1447.93 365.463C1436.22 375.768 1422.52 386.819 1406.83 398.613C1398.84 409.106 1391.17 419.814 1383.81 430.737C1393.24 429.338 1404.37 426.812 1417.2 423.159C1422.79 422.243 1428.78 421.04 1435.14 419.548C1441.51 418.057 1448.28 416.11 1455.46 413.709C1457.23 413.276 1459.19 412.699 1461.34 411.978C1463.5 411.258 1465.65 410.537 1467.8 409.817L1485.97 404.698L1491.57 404.979C1493.24 405.216 1493.48 405.934 1492.29 407.132C1491 409 1486.69 411.638 1479.37 415.046C1472.05 418.453 1464.61 421.501 1457.05 424.191L1427.12 432.77C1420.37 434.549 1415.03 436.015 1411.11 437.168C1407.18 438.322 1404.5 439.139 1403.07 439.619C1400.29 442.303 1397.69 445.011 1395.25 447.742C1393.19 450.186 1391.31 452.654 1389.59 455.145C1390.22 462.756 1397.84 474.093 1412.46 489.155C1418.4 495.468 1422.55 499.987 1424.9 502.713C1427.25 505.439 1428.13 506.419 1427.56 505.654C1432.06 510.053 1434.48 513.473 1434.82 515.914L1435.04 517.996L1434.97 518.499C1434.73 520.175 1433.22 519.961 1430.44 517.858C1427.52 516.76 1423.74 514.514 1419.09 511.121L1401.84 498.933C1394.7 493.819 1388.98 489.589 1384.67 486.243C1380.69 482.945 1377.05 479.693 1373.74 476.49C1370.43 473.286 1366.22 469.27 1361.09 464.441C1351.39 479.819 1342.79 493.472 1335.29 505.4C1334.81 506.358 1334.38 506.981 1333.99 507.269C1333.9 507.939 1333.83 508.442 1333.78 508.777C1333.64 509.783 1334.53 510.763 1336.44 511.718C1338.4 512.338 1339.48 513.175 1339.68 514.228C1339.82 515.616 1339.85 516.645 1339.75 517.315C1339.94 518.368 1340.02 519.062 1339.97 519.397C1339.16 525.095 1335.29 529.504 1328.35 532.623C1321.75 535.79 1314.69 537.354 1307.17 537.315ZM1412.26 378.357C1413.17 379.17 1415.9 378.018 1420.44 374.901C1425.03 371.449 1430.27 367.063 1436.15 361.742C1442.42 356.134 1448.54 350.335 1454.52 344.344C1460.88 338.065 1465.94 332.459 1469.72 327.523C1475.98 319.522 1481.36 311.736 1485.85 304.168C1490.39 296.264 1492.97 290.133 1493.58 285.776C1494.15 281.754 1492.93 279.53 1489.91 279.102C1486.23 278.58 1481.06 281.267 1474.41 287.162C1467.77 293.058 1460.9 300.462 1453.83 309.374C1447.09 318.334 1441.09 326.886 1435.84 335.03C1432.73 340.06 1429.36 345.737 1425.73 352.06C1422.43 358.431 1419.57 364.179 1417.13 369.304C1414.75 374.094 1413.12 377.111 1412.26 378.357Z" fill="black" fill-opacity="0.05"/>
<path d="M1210.52 497.466C1202.48 496.326 1196.63 492.934 1192.99 487.289C1189.63 482.027 1188.5 475.542 1189.59 467.834C1191.54 454.092 1198.46 441.398 1210.37 429.752C1219.89 420.502 1230.1 412.376 1241 405.374C1252.29 398.085 1262.99 392.591 1273.08 388.894C1283.56 384.908 1292.15 383.39 1298.86 384.34C1305.22 385.242 1309.03 388.517 1310.28 394.165C1311.25 397.036 1311.46 400.315 1310.94 404.002C1309.99 410.705 1307 413.7 1301.98 412.988C1299.63 412.655 1297.59 411.341 1295.87 409.045C1294.52 406.462 1294.14 403.159 1294.71 399.137C1291.26 396.939 1286.11 397.065 1279.27 399.514C1272.81 401.676 1265.8 405.298 1258.24 410.381C1250.73 415.129 1243.49 420.427 1236.5 426.275C1229.57 431.788 1224.09 436.654 1220.08 440.871C1212.86 448.395 1208.53 457.184 1207.11 467.239C1206.44 471.931 1207.07 475.952 1208.99 479.301C1210.91 482.649 1214.21 484.656 1218.91 485.321C1223.26 485.938 1228.65 485.334 1235.06 483.507C1239.75 481.779 1244.08 480.17 1248.05 478.681C1252.36 477.24 1256.31 475.919 1259.9 474.718C1282.34 465.932 1294.9 461.729 1297.58 462.109C1298.59 462.251 1299.02 462.825 1298.88 463.831C1298.73 464.836 1297.7 466.058 1295.79 467.497C1292.01 470.038 1286.06 473.468 1277.92 477.785C1269.79 482.103 1261.2 486.015 1252.16 489.52C1243.11 493.025 1234.91 495.451 1227.54 496.8C1220.88 497.909 1215.21 498.131 1210.52 497.466Z" fill="black" fill-opacity="0.05"/>
<path d="M1117.03 479.604C1109.99 478.607 1104.05 475.885 1099.21 471.438C1091.45 463.501 1088.51 452.828 1090.41 439.422C1092.31 426.016 1099.02 412.437 1110.54 398.685C1122.06 384.932 1138.28 373.041 1159.19 363.012C1162.87 361.141 1167.56 360.609 1173.26 361.417C1180.63 362.461 1186.88 365.398 1192.01 370.227C1197.48 375.104 1199.09 380.631 1196.84 386.809C1193.02 396.867 1186.52 405.347 1177.34 412.251C1168.49 419.203 1158.25 425.103 1146.63 429.951C1135.38 434.512 1123.83 438.857 1111.96 442.988C1111.48 443.946 1111 444.904 1110.53 445.862C1110.38 446.867 1110.24 447.873 1110.1 448.878C1109.43 453.571 1110.35 457.974 1112.84 462.088C1115.72 465.914 1120.01 468.231 1125.7 469.038C1130.06 469.656 1133.84 469.508 1137.05 468.595C1142.7 467.343 1147.31 466.117 1150.9 464.916C1154.83 463.763 1159.37 461.843 1164.54 459.156C1169.71 456.47 1176.79 452.344 1185.78 446.781C1189.85 444.622 1192.22 443.59 1192.89 443.685C1194.9 443.97 1195.35 445.573 1194.26 448.495C1190.14 453.382 1183.45 458.417 1174.17 463.597C1165.22 468.826 1155.39 473.073 1144.67 476.341C1134.28 479.656 1125.07 480.744 1117.03 479.604ZM1116.9 429.842C1119.58 430.222 1125.49 428.324 1134.63 424.149C1143.77 419.973 1152.47 415.224 1160.75 409.901C1175.15 399.975 1182.8 391.828 1183.7 385.46C1183.94 383.784 1183.65 382.205 1182.83 380.722C1182.07 378.904 1180.68 377.852 1178.66 377.567C1172.3 376.665 1160.5 382.686 1143.28 395.631C1131.47 404.214 1122.67 415.617 1116.9 429.842Z" fill="black" fill-opacity="0.05"/>
<path d="M894.073 477.758C886.03 476.618 882.459 472.864 883.361 466.496C884.263 460.128 889.569 452.846 899.277 444.648C908.173 437.362 922 430.261 940.758 423.346C959.563 416.096 980.715 410.375 1004.22 406.183C1009.48 405.22 1013.62 404.952 1016.64 405.379C1020.66 405.949 1022.55 407.072 1022.31 408.748C1022.08 410.423 1019.88 411.479 1015.71 411.915C1001.11 413.607 986.444 416.999 971.705 422.09C957.014 426.846 943.76 432.318 931.943 438.507C913.093 448.486 903.335 455.822 902.671 460.514C902.291 463.195 904.782 464.916 910.144 465.675C921.875 467.338 940.994 462.696 967.503 451.751C984.92 444.646 1001.67 436.249 1017.74 426.561C1033.86 416.537 1047.11 406.278 1057.48 395.782C1068.2 385.334 1074.22 375.417 1075.55 366.033C1077.07 355.308 1071.89 346.027 1060 338.19C1047.04 342.848 1033.59 347.268 1019.66 351.448C1005.79 355.294 992.648 358.732 980.253 361.762C967.858 364.792 957.137 366.863 948.09 367.974C939.379 369.133 933.563 369.164 930.641 368.066C920.872 364.63 916.367 360.231 917.127 354.869C917.791 350.177 921.735 345.265 928.958 340.135C936.516 335.052 944.673 330.566 953.429 326.679C962.52 322.839 969.698 320.437 974.963 319.473C995.016 315.477 1013.76 314.714 1031.19 317.183C1043.25 318.893 1054.22 322.327 1064.08 327.486C1077.01 323.162 1090.62 316.373 1104.92 307.117C1119.56 297.909 1132.81 287.65 1144.67 276.338C1156.52 265.027 1164.75 254.055 1169.33 243.422C1172.05 236.286 1173.65 231.043 1174.12 227.691C1175.97 214.62 1171.8 204.285 1161.59 196.685C1151.77 188.797 1137.64 183.548 1119.21 180.936C1091.39 176.994 1058.05 178.253 1019.19 184.712C993.292 188.907 969.028 194.871 946.393 202.604C924.142 210.049 905.864 218.4 891.561 227.656C877.306 236.576 868.987 245.825 866.604 255.402C865.841 258.371 864.336 260.551 862.088 261.941C859.839 263.332 857.542 263.861 855.196 263.529C851.174 262.959 849.519 260.161 850.232 255.133C852.653 238.04 870.132 222.055 902.668 207.178C919.174 199.26 937.238 192.418 956.859 186.651C976.862 180.596 997.37 175.809 1018.38 172.291C1039.39 168.772 1059.69 166.69 1079.27 166.045C1099.23 165.113 1117.25 165.787 1133.34 168.066C1155.12 171.153 1171.72 177.094 1183.12 185.889C1194.86 194.732 1199.66 206.694 1197.53 221.776C1196.72 227.474 1194.81 233.699 1191.8 240.453C1186.17 253.672 1177.04 266.224 1164.41 278.111C1151.79 289.998 1137.46 300.618 1121.44 309.971C1105.46 318.989 1089.19 326.428 1072.64 332.287C1089.69 347.012 1097.16 361.915 1095.02 376.997C1092.41 395.431 1077.99 412.705 1051.78 428.82C1038.67 436.877 1024.48 444.098 1009.22 450.483C993.957 456.867 978.836 462.246 963.857 466.619C948.879 470.993 935.263 474.192 923.01 476.216C910.757 478.241 901.112 478.755 894.073 477.758ZM867.194 457.539C858.718 454.628 852.945 450.733 849.875 445.854C847.141 441.022 846.368 434.417 847.555 426.038C847.792 424.362 848.316 421.872 849.126 418.568C849.936 415.264 851.056 410.978 852.486 405.711C855.824 394.218 862.128 381.094 871.398 366.339C881.004 351.631 892.236 336.299 905.095 320.343C918.289 304.435 932.107 288.957 946.547 273.908C961.322 258.908 975.716 245.391 989.728 233.36L986.641 233.435C984.965 233.197 984.246 232.241 984.483 230.565C984.673 229.224 986.25 226.542 989.213 222.517C994.28 215.714 999.755 210.848 1005.64 207.922C1008.61 206.291 1010.83 205.067 1012.31 204.252C1013.8 203.436 1014.73 202.885 1015.11 202.597C1017.03 201.159 1019.83 200.701 1023.51 201.223C1027.87 201.84 1031.73 203.583 1035.08 206.452C1038.77 209.368 1040.45 211.999 1040.12 214.345C1039.97 215.35 1038.94 216.572 1037.03 218.01C1020.43 228.992 1000.23 246.129 976.413 269.422C960.155 285.238 944.711 301.341 930.081 317.73C915.451 334.118 903.046 349.284 892.865 363.226C883.02 377.216 876.762 388.808 874.091 398.002L870.153 407.701C869.723 408.324 869.222 409.449 868.649 411.078C868.412 412.753 867.768 414.884 866.718 417.471C864.76 421.638 863.472 425.9 862.855 430.257C861.81 437.63 864.018 442.558 869.478 445.042C873.74 446.329 875.562 449.152 874.945 453.509C874.375 457.53 871.792 458.874 867.194 457.539ZM948.221 356.198C949.466 357.058 950.759 357.583 952.1 357.773C957.463 358.533 967.753 357.085 982.972 353.429C992.879 351.072 1003.36 348.284 1014.41 345.064C1025.85 341.556 1037.7 337.593 1049.95 333.175C1047.36 332.124 1044.25 331.171 1040.61 330.313C1037.3 329.503 1033.81 328.837 1030.12 328.314C1016.38 326.367 1002.21 327.437 987.615 331.523L987.112 331.451C981.417 333.038 976.057 334.671 971.033 336.353C966.343 338.081 962.036 339.522 958.112 340.676C950.599 343.03 946.534 346.386 945.917 350.743C945.679 352.419 946.447 354.237 948.221 356.198Z" fill="black" fill-opacity="0.05"/>
<path d="M545.084 401.13C539.051 400.275 536.367 397.502 537.032 392.809C537.459 389.793 539.011 386.081 541.686 381.674C544.697 377.314 547.684 373.122 550.648 369.097C558.63 358.604 566.063 348.375 572.945 338.41C579.827 328.445 586.636 317.786 593.373 306.433C596.479 301.403 600.378 299.22 605.07 299.885C610.098 300.597 611.178 303.827 608.313 309.575C605.59 314.317 602.938 318.557 600.357 322.294C588.266 340.068 581.745 352.307 580.795 359.01C580.368 362.026 581.112 364.012 583.028 364.967C588.243 361.946 592.142 359.763 594.725 358.42C597.356 356.741 598.863 355.758 599.246 355.47C604.46 352.448 610.249 348.995 616.611 345.11C623.356 340.938 630.699 336.166 638.64 330.795C651.125 322.308 661.054 318.586 668.427 319.631C677.476 320.913 680.167 329.671 676.5 345.903C675.262 352.224 674.384 358.424 673.864 364.504C674.009 365.893 673.892 367.927 673.512 370.608C673.179 372.955 672.776 375.803 672.301 379.155C671.826 382.506 673.6 384.467 677.621 385.037C682.314 385.702 686.861 384.979 691.262 382.867L703.391 376.893L715.448 371.422C716.166 371.182 717.363 371.181 719.039 371.418C721.05 371.703 720.836 373.211 718.398 375.943C693.579 399.093 674.299 409.695 660.557 407.748C657.876 407.368 655.266 406.485 652.727 405.1C650.524 403.762 649.252 400.676 648.911 395.841C648.618 390.671 648.707 385.214 649.179 379.469C649.987 373.771 650.604 369.414 651.031 366.398L653.885 349.879C654.882 342.84 653.537 339.06 649.851 338.538C641.137 337.303 617.146 352.195 577.879 383.212C574.723 386.184 569.892 390.115 563.387 395.005C556.882 399.896 550.781 401.937 545.084 401.13Z" fill="black" fill-opacity="0.05"/>
<path d="M357.282 396.571C350.244 395.574 347.726 391.628 349.729 384.732C353.544 372.281 358.868 360.044 365.7 348.02C369.331 341.697 373.775 334.463 379.031 326.319C384.623 318.222 391.027 309.215 398.245 299.297C402.068 294.027 405.294 289.356 407.922 285.284C410.886 281.259 413.228 278.001 414.948 275.51C417.959 271.15 421.018 266.455 424.124 261.425C427.565 256.443 431.077 250.958 434.66 244.969C451.338 218.956 465.317 198.714 476.598 184.244C488.262 169.487 499.931 159.516 511.606 154.332C512.371 153.757 514.215 154.018 517.136 155.116C520.105 155.879 522.859 156.952 525.398 158.338C528.271 159.771 529.949 161.205 530.429 162.641C531.102 165.129 531.13 168.552 530.513 172.909C528.613 186.315 520.133 201.524 505.073 218.536C496.945 227.641 486.832 237.49 474.733 248.083C463.016 258.389 449.313 269.439 433.625 281.233L422.51 294.53C410.176 309.193 400.353 321.819 393.04 332.407C386.063 343.042 382.628 352.812 382.734 361.716C383.119 363.822 383.815 364.946 384.82 365.088C385.826 365.231 387.62 364.63 390.204 363.287C392.787 361.944 395.418 360.265 398.097 358.251C401.11 356.285 404.028 353.793 406.849 350.773C408.762 349.335 410.364 347.682 411.654 345.813C413.279 343.992 414.881 342.339 416.459 340.853C418.993 337.451 421.431 334.72 423.774 332.659C431.662 322.836 438.093 316.055 443.067 312.315C451.485 305.986 458.543 303.226 464.241 304.033C470.944 304.983 476.287 309.501 480.269 317.586C484.635 325.384 488.884 336.414 493.017 350.675C495.95 361.347 498.879 369.625 501.806 375.51C504.78 381.06 507.943 384.072 511.295 384.547C514.647 385.022 518.786 383.557 523.713 380.153C528.257 377.036 532.061 375.523 535.125 375.616C536.803 378.247 536.208 381.239 533.34 384.594C530.519 387.613 526.549 390.298 521.429 392.65C516.597 395.384 511.86 397.448 507.218 398.841C502.576 400.235 499.13 400.43 496.879 399.428C487.874 395.417 481.166 389.68 476.753 382.217C472.723 374.466 468.978 364.705 465.518 352.932C464.364 349.008 463.307 345.611 462.346 342.739C461.433 339.533 460.425 336.997 459.322 335.131C457.451 331.447 454.504 329.32 450.482 328.751C447.466 328.323 443.733 329.333 439.284 331.779C434.787 334.561 430.195 338.013 425.509 342.135C420.869 345.922 416.255 350.739 411.666 356.584C408.845 359.603 406.622 362.024 404.996 363.845C403.754 365.378 402.749 366.432 401.984 367.008C399.976 369.116 396.82 372.088 392.516 375.922C388.499 380.14 383.67 385.268 378.028 391.306C376.068 393.079 373.125 394.543 369.201 395.696C365.612 396.897 362.142 397.26 358.79 396.785L357.282 396.571ZM439.059 260.977C439.97 261.79 442.697 260.638 447.241 257.521C451.833 254.069 457.07 249.683 462.952 244.363C469.217 238.755 475.338 232.955 481.315 226.964C487.674 220.686 492.742 215.079 496.518 210.144C509.425 193.853 516.282 182.858 517.089 177.161C517.422 174.815 516.821 173.02 515.288 171.777C512.316 168.621 507.578 169.488 501.073 174.379C494.616 178.934 487.897 185.332 480.917 193.574C473.985 201.481 467.891 209.507 462.634 217.651C459.528 222.681 456.16 228.357 452.529 234.681C449.233 241.051 446.367 246.799 443.932 251.924C441.543 256.714 439.919 259.732 439.059 260.977Z" fill="black" fill-opacity="0.05"/>
<path d="M261.573 361.472C248.502 359.62 242.798 352.829 244.46 341.098C244.555 340.428 244.721 339.255 244.958 337.579C245.531 335.951 246.151 333.987 246.819 331.689C252.117 318.422 260.696 306.133 272.555 294.822C284.797 283.223 298.31 273.514 313.093 265.694C318.69 262.384 327.019 261.513 338.079 263.08C344.447 263.982 349.835 265.771 354.242 268.447C359.032 270.835 362.171 274.015 363.66 277.987C365.196 281.623 365.655 285.62 365.038 289.977C364.943 290.647 364.633 291.629 364.107 292.922C363.918 294.263 363.536 295.747 362.964 297.376C363.681 297.135 364.711 297.11 366.051 297.3C367.727 297.538 369.762 297.655 372.155 297.652C374.549 297.65 376.775 297.623 378.833 297.573C381.227 297.57 383.597 297.735 385.943 298.067L387.954 298.352C391.64 298.875 391.762 300.43 388.318 303.019C385.257 305.321 381.333 306.474 376.546 306.48L359.168 306.069C354.487 314.978 347.292 323.531 337.583 331.728C328.21 339.973 317.997 346.902 306.945 352.516C296.276 357.842 286.442 360.893 277.443 361.669C272.226 362.297 266.936 362.232 261.573 361.472ZM336.537 295.682C338.548 295.967 340.894 296.3 343.575 296.68C346.639 296.772 350.038 296.912 353.772 297.099C354.202 296.476 354.583 294.992 354.916 292.645C355.771 286.613 353.851 282.067 349.156 279.009C346.712 276.953 343.479 275.64 339.457 275.07C334.43 274.358 328.997 275.298 323.16 277.89C317.705 280.194 311.773 283.456 305.363 287.676C312.069 291.019 322.46 293.688 336.537 295.682ZM279.148 346.013C282.5 346.488 287.406 345.645 293.866 343.483C300.709 341.034 307.862 337.603 315.325 333.19C322.787 328.777 329.628 323.935 335.845 318.662C337.758 317.223 339.719 315.45 341.727 313.341C343.783 310.897 346.006 308.477 348.397 306.081L336.117 305.88C316.969 305.901 299.997 305.035 285.203 303.281C276.12 314.302 270.171 323.715 267.355 331.522C266.403 335.831 267.125 339.181 269.521 341.572C271.917 343.963 275.127 345.443 279.148 346.013Z" fill="black" fill-opacity="0.05"/>
<path d="M18.628 443.461C12.5952 442.606 8.35555 439.954 5.90901 435.505C3.46247 431.056 2.71408 425.479 3.66384 418.776C5.46838 406.04 11.6537 393.754 22.2197 381.918C31.1128 372.238 42.877 361.597 57.5124 349.995C72.483 338.441 88.2677 327.173 104.867 316.191C121.465 305.21 136.798 295.929 150.863 288.349C167.177 279.379 180.669 272.23 191.338 266.904C202.055 261.243 212.126 256.516 221.553 252.724C230.979 248.931 241.77 245.161 253.925 241.413C292.31 192.492 318.556 141.168 332.665 87.4399C333.142 86.4819 333.642 84.1595 334.165 80.4728C336.112 66.7315 331.388 59.0535 319.992 57.4389C311.613 56.2517 299.696 58.3238 284.239 63.6553C274.908 66.7776 264.908 71.0017 254.238 76.3277C243.569 81.6536 233.929 86.9545 225.318 92.2302C216.755 97.1708 210.704 101.271 207.165 104.53C192.77 116.849 179.453 130.005 167.214 143.998C155.31 158.038 146.109 171.093 139.613 183.165C135.121 190.733 132.33 198.372 131.237 206.081C129.433 218.817 134.873 225.058 147.559 224.804C163.691 224.354 179.462 221.632 194.871 216.635C210.28 211.639 223.222 205.951 233.699 199.573C235.517 198.804 237.671 198.084 240.159 197.411C242.648 196.738 244.562 196.496 245.903 196.686C246.573 196.781 246.885 196.996 246.837 197.331C246.695 198.337 245.667 199.559 243.754 200.997C225.526 211.406 208.637 219.611 193.086 225.613C177.917 231.327 162.458 234.265 146.708 234.427C143.645 234.335 141.083 234.314 139.025 234.364C137.014 234.079 135.338 233.841 133.998 233.651C123.943 232.227 116.734 228.812 112.372 223.408C108.009 218.003 106.422 211.112 107.609 202.733C109.556 188.991 117.867 172.562 132.541 153.444C147.264 133.992 165.481 115.205 187.194 97.0849C203.503 83.3271 219.958 72.1542 236.559 63.5662C253.208 54.6431 268.855 47.971 283.498 43.5501C298.142 39.1291 310.251 36.9132 319.825 36.9022C320.878 36.7095 322.913 36.8269 325.929 37.2543C335.984 38.6789 343.553 43.1702 348.636 50.728C354.054 58.3334 355.908 68.1689 354.199 80.2345C354.009 81.5751 353.627 83.0596 353.055 84.6878C352.817 86.3636 352.365 88.3508 351.697 90.6494C336.676 141.171 312.149 190.004 278.119 237.149L286.661 234.769C290.538 233.951 293.649 233.708 295.995 234.041C300.687 234.705 302.891 236.043 302.606 238.054C302.416 239.395 300.862 240.713 297.943 242.009C292.201 243.93 286.817 245.732 281.793 247.413C276.816 248.759 272.03 249.961 267.435 251.02C248.217 273.254 227.059 295.898 203.964 318.95C181.251 341.715 157.914 362.853 133.952 382.364C109.944 402.211 86.2896 418.347 62.9904 430.772C44.4756 440.798 29.6881 445.028 18.628 443.461ZM31.0922 417.022C39.8062 418.256 50.5257 414.989 63.2507 407.219C74.8277 400.312 87.8627 391.561 102.356 380.964C117.136 370.751 131.844 359.843 146.48 348.242C161.068 336.975 174.387 326.213 186.439 315.954C198.539 305.361 207.648 296.566 213.768 289.57C218.692 283.772 223.21 278.429 227.321 273.541C231.48 268.319 235.232 263.551 238.578 259.239C230.683 261.881 223.098 264.738 215.825 267.81C208.6 270.547 201.686 273.499 195.083 276.666C190.346 278.73 184.27 281.801 176.855 285.878C169.439 289.956 160.541 294.849 150.159 300.557C137.959 307.034 124.445 315.547 109.617 326.095C94.8365 336.309 80.6787 346.953 67.1438 358.026C53.9439 369.148 42.8975 379.549 34.0045 389.229C27.1197 396.8 23.3448 402.932 22.68 407.624C22.1102 411.646 23.4298 414.397 26.6389 415.878C26.9265 416.26 28.411 416.642 31.0922 417.022Z" fill="black" fill-opacity="0.05"/>
</svg>
